<?xml version="1.0" standalone="no"?>
<!DOCTYPE svg PUBLIC "-//W3C//DTD SVG 20010904//EN"
 "http://www.w3.org/TR/2001/REC-SVG-20010904/DTD/svg10.dtd">
<svg version="1.0" xmlns="http://www.w3.org/2000/svg"
 width="300.000000pt" height="300.000000pt" viewBox="0 0 300.000000 300.000000"
 preserveAspectRatio="xMidYMid meet">
<metadata>
Created by potrace 1.10, written by Peter Selinger 2001-2011
</metadata>
<g transform="translate(0.000000,300.000000) scale(0.100000,-0.100000)"
fill="#ffffff" stroke="none">
<path d="M1857 2650 c-94 -24 -182 -90 -211 -162 -13 -31 -21 -37 -56 -43 -34
-6 -40 -11 -40 -31 0 -21 5 -24 35 -24 22 0 38 -6 41 -14 3 -8 2 -86 -3 -173
l-8 -158 -27 -3 c-22 -3 -28 -9 -28 -28 0 -24 1 -24 98 -24 55 0 147 -3 205
-7 105 -6 107 -6 107 15 0 17 -9 24 -45 33 l-45 11 1 87 c1 47 4 120 8 161 l6
75 65 5 c61 5 65 7 68 31 3 26 1 27 -65 35 l-68 9 3 45 c4 48 21 89 46 109 13
11 20 8 42 -18 37 -44 75 -61 137 -61 67 0 96 24 81 67 -17 47 -74 68 -199 70
-60 1 -127 -2 -148 -7z"/>
<path d="M302 2569 c-113 -56 -53 -155 81 -135 68 10 111 43 115 88 3 32 -1
39 -27 52 -43 23 -118 20 -169 -5z"/>
<path d="M1123 2446 c-22 -8 -54 -23 -70 -34 -42 -30 -55 -30 -63 -2 -3 14
-14 26 -23 28 -17 3 -217 -55 -284 -83 -43 -18 -34 -43 15 -47 l37 -3 12 -70
c6 -38 14 -107 18 -151 l7 -81 -26 -7 c-17 -4 -26 -13 -26 -26 0 -24 6 -24
195 -5 77 8 146 15 153 15 6 0 12 9 12 20 0 13 -7 20 -19 20 -11 0 -23 5 -27
11 -7 13 -33 280 -27 291 8 15 94 40 118 34 36 -9 43 -35 47 -186 l3 -134 -24
-6 c-26 -6 -35 -19 -23 -35 4 -6 74 -9 185 -7 l177 4 0 24 c0 17 -6 24 -19 24
-11 0 -23 6 -28 13 -4 6 -10 81 -13 165 l-5 154 -37 33 c-20 18 -53 38 -75 44
-51 14 -138 13 -190 -3z"/>
<path d="M2196 2375 c-103 -42 -146 -100 -146 -195 0 -161 201 -281 450 -267
129 7 209 48 250 127 58 115 14 228 -117 297 -91 49 -154 63 -272 63 -89 0
-116 -4 -165 -25z m284 -45 c27 -27 34 -60 27 -133 -10 -113 -27 -169 -63
-205 -28 -28 -39 -33 -62 -27 -49 12 -62 40 -62 141 0 99 18 176 51 218 26 33
79 36 109 6z"/>
<path d="M350 2332 c-101 -40 -146 -62 -148 -74 -3 -15 4 -18 37 -18 22 0 42
-4 45 -8 5 -8 38 -172 51 -249 6 -39 5 -44 -19 -54 -30 -14 -36 -49 -8 -49 55
1 347 59 346 69 -2 27 -5 30 -31 33 -28 3 -28 4 -49 143 -12 77 -25 167 -30
200 -7 49 -13 60 -29 62 -11 1 -85 -24 -165 -55z"/>
<path d="M720 1360 c-174 -54 -182 -57 -178 -78 2 -12 16 -19 43 -22 47 -6 39
23 95 -330 22 -140 43 -267 46 -282 5 -23 1 -30 -20 -39 -31 -14 -37 -59 -8
-59 9 0 84 9 166 20 81 11 150 20 152 20 2 0 4 11 4 24 0 17 -7 26 -25 30 -28
7 -27 5 -51 208 -8 76 -13 142 -9 148 8 13 80 50 98 50 36 0 50 -38 63 -173
20 -200 19 -214 -11 -221 -19 -5 -25 -13 -25 -32 l0 -26 168 7 c92 4 171 11
175 15 16 14 2 44 -23 50 l-25 6 -10 189 c-8 161 -13 195 -30 224 -29 50 -94
81 -169 81 -83 0 -125 -13 -173 -55 -23 -19 -46 -35 -51 -35 -5 0 -15 66 -22
148 -6 81 -14 153 -16 160 -5 18 -26 14 -164 -28z"/>
<path d="M1695 1166 c-94 -23 -170 -78 -208 -150 -32 -60 -31 -183 2 -249 31
-63 83 -114 151 -146 50 -24 66 -26 180 -26 113 0 130 2 174 25 106 52 166
152 166 273 0 77 -23 128 -81 184 -54 52 -116 80 -205 93 -86 12 -116 11 -179
-4z m170 -70 c32 -32 39 -77 32 -205 -6 -125 -30 -205 -69 -234 -25 -19 -28
-19 -52 -4 -45 30 -51 52 -50 197 0 148 13 210 49 246 31 30 59 30 90 0z"/>
<path d="M2330 1069 c-41 -5 -81 -11 -87 -14 -20 -7 -16 -45 5 -45 10 0 26 -6
36 -13 18 -13 17 -21 -9 -193 -37 -250 -65 -416 -71 -426 -3 -4 -16 -8 -28 -8
-17 0 -25 -7 -29 -26 -5 -30 -13 -27 138 -54 202 -36 192 -36 200 -9 6 17 3
26 -10 34 -45 27 -45 25 -25 123 10 51 21 96 24 99 3 3 19 -6 35 -20 103 -86
292 -71 382 31 54 61 82 130 87 215 7 124 -31 193 -137 248 -58 30 -180 38
-234 15 -40 -16 -49 -11 -44 29 2 18 -4 20 -78 21 -44 1 -114 -2 -155 -7z
m330 -124 c61 -32 75 -105 40 -218 -24 -76 -51 -114 -97 -133 -28 -12 -38 -12
-67 0 -18 8 -36 18 -39 23 -6 10 55 312 67 331 10 17 61 15 96 -3z"/>
<path d="M310 1050 c-122 -19 -237 -86 -275 -161 -35 -68 -4 -169 65 -212 30
-19 52 -22 150 -25 124 -3 166 -14 175 -43 17 -51 -48 -98 -136 -99 -45 0 -46
1 -69 51 -23 48 -26 51 -55 46 -16 -3 -42 -10 -57 -16 l-27 -10 16 -58 c9 -32
21 -64 26 -71 14 -17 159 -16 232 3 123 32 208 84 241 147 21 41 18 136 -6
176 -31 51 -85 69 -229 77 -101 6 -127 11 -142 26 -11 11 -19 25 -19 32 0 23
38 56 77 66 66 19 78 15 98 -29 10 -23 22 -43 27 -46 5 -3 34 0 64 7 l56 13
-5 59 c-3 32 -7 60 -9 62 -9 9 -150 13 -198 5z"/>
</g>
</svg>
